<?xml version="1.0" encoding="utf-8"?>
<!-- Generator: Adobe Illustrator 23.0.2, SVG Export Plug-In . SVG Version: 6.00 Build 0)  -->
<svg version="1.1" id="Layer_1" xmlns="http://www.w3.org/2000/svg" xmlns:xlink="http://www.w3.org/1999/xlink" x="0px" y="0px"
	 viewBox="0 0 30 30" style="enable-background:new 0 0 30 30;" xml:space="preserve">
<style type="text/css">
	.st0{fill:#283D82;}
</style>
<g>
	<path class="st0" d="M9.7,14.1v-0.9c0-1.9-1.6-3.5-3.5-3.5c-1.9,0-3.4,1.5-3.5,3.4v1h6.1L9.7,14.1z M4.7,12.3
		c0.3-0.5,0.8-0.8,1.5-0.8c0.6,0,1.2,0.3,1.5,0.8H4.7z"/>
	<path class="st0" d="M26.7,13.3c0-0.1,0.2-1.2-0.7-2.3c-1-1.2-2.9-1.8-5.6-1.8h-9.5v4.8h15.7L26.7,13.3z"/>
	<path class="st0" d="M28.2,13.2v2.2H1.8V7.1H0v15.9h1.8v-1.6h26.4v1.6H30v-9.8H28.2z M1.8,19.6v-2.4h26.4v2.4H1.8z"/>
</g>
</svg>
