<?xml version="1.0" encoding="utf-8"?>
<!-- Generator: Adobe Illustrator 23.0.1, SVG Export Plug-In . SVG Version: 6.00 Build 0)  -->
<svg version="1.1" id="Layer_1" xmlns="http://www.w3.org/2000/svg" xmlns:xlink="http://www.w3.org/1999/xlink" x="0px" y="0px"
	 viewBox="0 0 200 100" style="enable-background:new 0 0 200 100;" xml:space="preserve">
<style type="text/css">
	.st0{fill:#FFC500;}
	.st1{fill:none;stroke:#FFFFFF;stroke-width:4;stroke-linecap:round;stroke-linejoin:round;stroke-miterlimit:10;}
	.st2{fill:#68A8DE;}
	.st3{fill:#FFFFFF;}
	.st4{opacity:0.39;fill:#FFFFFF;}
	.st5{fill:#04755F;}
	.st6{fill:#03846D;}
	.st7{fill:#6B1B4B;}
	.st8{fill:#802656;}
	.st9{fill:#09846D;}
	.st10{fill:#283D82;}
	.st11{opacity:0.44;}
	.st12{fill:none;stroke:#283D82;stroke-width:5;stroke-miterlimit:10;}
	.st13{fill:#283D82;stroke:#283D82;stroke-width:5;stroke-miterlimit:10;}
	.st14{fill:none;stroke:#FFFFFF;stroke-width:5;stroke-miterlimit:10;}
	.st15{fill:#231F20;}
	.st16{fill:#273E82;stroke:#283D82;stroke-width:5;stroke-miterlimit:10;}
	.st17{fill:#283D82;stroke:#283D82;stroke-width:0.282;stroke-miterlimit:10;}
	.st18{fill:none;stroke:#283D82;stroke-width:5;stroke-linecap:round;stroke-linejoin:round;stroke-miterlimit:10;}
	.st19{fill:#273E82;}
	.st20{fill:#314A5E;}
	.st21{fill:#B2B3B5;}
	.st22{fill:#DB683B;}
	.st23{fill:#55C0EA;}
	.st24{fill:#EDEDEF;}
	.st25{fill:#006EBD;}
	.st26{fill:#56718C;}
	.st27{opacity:0.5;fill:#415569;}
	.st28{fill:#021D48;}
	.st29{fill:#FFFFFF;stroke:#006EBD;stroke-width:4;stroke-miterlimit:10;}
	.st30{fill:none;stroke:#006EBD;stroke-width:7.0257;stroke-miterlimit:10;}
	.st31{fill:none;stroke:#006EBD;stroke-width:6;stroke-miterlimit:10;}
	.st32{fill:none;stroke:#006EBD;stroke-width:9;stroke-linecap:round;stroke-linejoin:round;stroke-miterlimit:10;}
	.st33{fill:#FFFFFF;stroke:#006EBD;stroke-width:6;stroke-miterlimit:10;}
</style>
<g>
	<polyline class="st12" points="13.79,82.49 13.79,52.49 62.38,52.49 62.38,82.49 	"/>
	<polyline class="st12" points="62.38,60.76 73.7,60.76 73.7,82.49 2.47,82.49 2.47,60.76 13.79,60.76 	"/>
	<circle class="st12" cx="38.09" cy="42.11" r="3.55"/>
	<g>
		<polygon class="st10" points="55.75,25.67 44.27,25.67 44.27,15.44 55.75,15.44 52.54,20.56 		"/>
		<rect x="36.61" y="13.51" class="st10" width="11.48" height="10.23"/>
	</g>
	<line class="st12" x1="38.09" y1="13.51" x2="38.09" y2="30.49"/>
	<g>
		<polyline class="st12" points="50.43,82.49 50.43,63.3 25.75,63.3 25.75,82.49 		"/>
	</g>
	<polygon class="st12" points="57.09,52.49 19.08,52.49 19.08,37.96 38.2,30.49 57.09,37.96 	"/>
	<line class="st12" x1="38.09" y1="63.3" x2="38.09" y2="82.49"/>
</g>
<g>
	<g>
		<polygon class="st10" points="177.37,24.84 166.67,24.84 166.67,15.31 177.37,15.31 174.37,20.07 		"/>
		<rect x="159.54" y="13.51" class="st10" width="10.7" height="9.53"/>
	</g>
	<polygon class="st12" points="193.44,82.49 129.16,82.49 129.16,50.49 161.3,27.38 193.44,50.49 	"/>
	<line class="st12" x1="122.68" y1="50.49" x2="199.92" y2="50.49"/>
	<line class="st12" x1="122.68" y1="82.49" x2="199.92" y2="82.49"/>
	<line class="st12" x1="129.16" y1="74.77" x2="193.44" y2="74.77"/>
	<path class="st12" d="M143.82,58.44L143.82,58.44c2.73,0,4.94,2.21,4.94,4.94v11.39h-9.87V63.38
		C138.89,60.65,141.1,58.44,143.82,58.44z"/>
	<path class="st12" d="M161.4,58.44L161.4,58.44c2.73,0,4.94,2.21,4.94,4.94v11.39h-9.87V63.38
		C156.47,60.65,158.68,58.44,161.4,58.44z"/>
	<path class="st12" d="M178.98,58.44L178.98,58.44c2.73,0,4.94,2.21,4.94,4.94v11.39h-9.87V63.38
		C174.04,60.65,176.25,58.44,178.98,58.44z"/>
	<circle class="st12" cx="161.4" cy="40.11" r="3.55"/>
	<line class="st12" x1="161.3" y1="13.51" x2="161.3" y2="27.38"/>
</g>
<g>
	<path class="st10" d="M91.84,45.77c4.34,0,7.45-2.72,7.45-6.55c0-3.98-3.11-6.13-6.47-6.13c-1.88,0-3.67,0.9-4.59,2.13v-0.22
		c0-2.6,2.1-4.26,4.4-4.26c1.51,0,2.55,0.39,3.58,1.23l2.07-3.7c-1.4-1.09-3.47-1.79-5.66-1.79c-5.66,0-9.27,3.7-9.27,9.66
		C83.35,41.49,85.93,45.77,91.84,45.77z M91.36,37.17c1.46,0,3.05,0.64,3.05,2.21c0,1.04-1.09,2.13-2.88,2.13
		c-2.27,0-3.16-1.57-3.3-3.08C89.04,37.57,90.19,37.17,91.36,37.17z"/>
	<path class="st10" d="M108.64,45.77c5.46,0,8.01-4.73,8.01-9.66c0-4.93-2.55-9.63-8.01-9.63s-8.01,4.7-8.01,9.63
		C100.63,41.04,103.18,45.77,108.64,45.77z M108.64,30.73c2.24,0,3.14,2.07,3.14,5.38c0,3.3-0.9,5.4-3.14,5.4
		c-2.24,0-3.14-2.1-3.14-5.4C105.5,32.81,106.4,30.73,108.64,30.73z"/>
	<polygon class="st10" points="101.33,53.76 101.33,50.98 103.77,50.98 103.77,48.44 101.33,48.44 101.33,45.77 98.67,45.77 
		98.67,48.44 96.23,48.44 96.23,50.98 98.67,50.98 98.67,53.76 	"/>
	<path class="st10" d="M92.82,62.09c-1.88,0-3.67,0.9-4.59,2.13v-0.22c0-2.6,2.1-4.26,4.4-4.26c1.51,0,2.55,0.39,3.58,1.23l2.07-3.7
		c-1.4-1.09-3.47-1.79-5.66-1.79c-5.66,0-9.27,3.7-9.27,9.66c0,5.35,2.58,9.63,8.48,9.63c4.34,0,7.45-2.72,7.45-6.55
		C99.29,64.24,96.18,62.09,92.82,62.09z M91.53,70.51c-2.27,0-3.16-1.57-3.3-3.08c0.81-0.87,1.96-1.26,3.14-1.26
		c1.46,0,3.05,0.64,3.05,2.21C94.42,69.42,93.32,70.51,91.53,70.51z"/>
	<path class="st10" d="M116.65,65.11c0-4.93-2.55-9.63-8.01-9.63s-8.01,4.7-8.01,9.63c0,4.93,2.55,9.66,8.01,9.66
		S116.65,70.04,116.65,65.11z M105.5,65.11c0-3.3,0.9-5.38,3.14-5.38c2.24,0,3.14,2.07,3.14,5.38c0,3.3-0.9,5.4-3.14,5.4
		C106.4,70.51,105.5,68.41,105.5,65.11z"/>
</g>
</svg>
