<?xml version="1.0" encoding="utf-8"?>
<!-- Generator: Adobe Illustrator 23.0.2, SVG Export Plug-In . SVG Version: 6.00 Build 0)  -->
<svg version="1.1" id="Layer_1" xmlns="http://www.w3.org/2000/svg" xmlns:xlink="http://www.w3.org/1999/xlink" x="0px" y="0px"
	 viewBox="0 0 30 30" style="enable-background:new 0 0 30 30;" xml:space="preserve">
<style type="text/css">
	.st0{fill:#283D82;}
</style>
<g>
	<path class="st0" d="M29.9,20.9c0-2-1.2-3.6-2.8-3.6H2.9v0c-1.6,0-2.8,1.6-2.8,3.6s1.2,3.6,2.8,3.6h1.2v2.8l9.1-2.1V30l2.5-3l2.5,3
		v-5.1l10,2.3v-3C29.2,23.7,29.9,22.4,29.9,20.9z M5.2,22.9c0.3-0.6,0.5-1.2,0.5-2c0-0.7-0.2-1.4-0.5-2H14v0c0.6,0,1.2,0.8,1.2,2
		c0,1.2-0.6,2-1.2,2h-0.8H5.2z M1.7,20.9c0-1.2,0.6-2,1.2-2c0.6,0,1.2,0.8,1.2,2c0,1.2-0.6,2-1.2,2C2.3,22.9,1.7,22,1.7,20.9z
		 M5.7,24.4h3.5l-3.5,0.8V24.4z M23,24.4h3.5v0.8L23,24.4z M27.1,22.9L27.1,22.9l-7.4,0c0.3-0.6,0.5-1.2,0.5-2c0-0.7-0.2-1.4-0.5-2
		h7.4c0.6,0,1.2,0.8,1.2,2C28.3,22,27.7,22.9,27.1,22.9z"/>
	<polygon class="st0" points="7.2,15.8 22.9,15.8 22.9,10.5 25.6,9.1 25.6,13.1 24.4,13.1 24.4,15.8 25.9,15.8 25.9,14.6 26.9,14.6 
		26.9,15.8 28.4,15.8 28.4,13.1 27.2,13.1 27.2,8.3 29.3,7.2 15,0 0.7,7.2 7.2,10.5 	"/>
</g>
</svg>
