<?xml version="1.0" encoding="utf-8"?>
<!-- Generator: Adobe Illustrator 23.0.2, SVG Export Plug-In . SVG Version: 6.00 Build 0)  -->
<svg version="1.1" id="Layer_1" xmlns="http://www.w3.org/2000/svg" xmlns:xlink="http://www.w3.org/1999/xlink" x="0px" y="0px"
	 viewBox="0 0 30 30" style="enable-background:new 0 0 30 30;" xml:space="preserve">
<style type="text/css">
	.st0{fill:#283D82;}
</style>
<path class="st0" d="M29.7,17.4l-8-6.8c-0.3-0.2-0.6-0.3-0.9-0.1c-0.3,0.1-0.5,0.4-0.5,0.8v2.9H8.8c-0.5,0-0.9,0.4-0.9,0.9v1.9
	l-5.8-4.9L8,7v2.3c0,0.5,0.4,0.9,0.9,0.9H16V8.4H9.7V5.1c0-0.3-0.2-0.6-0.5-0.8C8.9,4.2,8.5,4.3,8.3,4.5l-8,6.8
	C0.1,11.5,0,11.7,0,12c0,0.2,0.1,0.5,0.3,0.6l8,6.7c0.3,0.2,0.6,0.3,0.9,0.1c0.3-0.1,0.5-0.4,0.5-0.8v-2.9h11.5
	c0.5,0,0.9-0.4,0.9-0.9v-1.9l5.8,5L22,23v-2.3c0-0.5-0.4-0.9-0.9-0.9H14v1.7h6.3v3.3c0,0.3,0.2,0.6,0.5,0.8c0.1,0.1,0.2,0.1,0.4,0.1
	c0.2,0,0.4-0.1,0.6-0.2l8-6.8c0.2-0.2,0.3-0.4,0.3-0.6C30,17.8,29.9,17.6,29.7,17.4z"/>
</svg>
