<?xml version="1.0" encoding="utf-8"?>
<!-- Generator: Adobe Illustrator 23.0.1, SVG Export Plug-In . SVG Version: 6.00 Build 0)  -->
<svg version="1.1" id="Layer_1" xmlns="http://www.w3.org/2000/svg" xmlns:xlink="http://www.w3.org/1999/xlink" x="0px" y="0px"
	 viewBox="0 0 100 100" style="enable-background:new 0 0 100 100;" xml:space="preserve">
<style type="text/css">
	.st0{fill:#FFC500;}
	.st1{fill:none;stroke:#FFFFFF;stroke-width:4;stroke-linecap:round;stroke-linejoin:round;stroke-miterlimit:10;}
	.st2{fill:#68A8DE;}
	.st3{fill:#FFFFFF;}
	.st4{opacity:0.39;fill:#FFFFFF;}
	.st5{fill:#04755F;}
	.st6{fill:#03846D;}
	.st7{fill:#6B1B4B;}
	.st8{fill:#802656;}
	.st9{fill:#09846D;}
	.st10{fill:#283D82;}
	.st11{opacity:0.44;}
	.st12{fill:none;stroke:#283D82;stroke-width:5;stroke-miterlimit:10;}
	.st13{fill:#283D82;stroke:#283D82;stroke-width:5;stroke-miterlimit:10;}
	.st14{fill:none;stroke:#FFFFFF;stroke-width:5;stroke-miterlimit:10;}
	.st15{fill:#231F20;}
	.st16{fill:#273E82;stroke:#283D82;stroke-width:5;stroke-miterlimit:10;}
	.st17{fill:#283D82;stroke:#283D82;stroke-width:0.282;stroke-miterlimit:10;}
	.st18{fill:none;stroke:#283D82;stroke-width:5;stroke-linecap:round;stroke-linejoin:round;stroke-miterlimit:10;}
	.st19{fill:#273E82;}
	.st20{fill:#314A5E;}
	.st21{fill:#B2B3B5;}
	.st22{fill:#DB683B;}
	.st23{fill:#55C0EA;}
	.st24{fill:#EDEDEF;}
	.st25{fill:#006EBD;}
	.st26{fill:#56718C;}
	.st27{opacity:0.5;fill:#415569;}
	.st28{fill:#021D48;}
	.st29{fill:#FFFFFF;stroke:#006EBD;stroke-width:4;stroke-miterlimit:10;}
	.st30{fill:none;stroke:#006EBD;stroke-width:7.0257;stroke-miterlimit:10;}
	.st31{fill:none;stroke:#006EBD;stroke-width:6;stroke-miterlimit:10;}
	.st32{fill:none;stroke:#006EBD;stroke-width:9;stroke-linecap:round;stroke-linejoin:round;stroke-miterlimit:10;}
	.st33{fill:#FFFFFF;stroke:#006EBD;stroke-width:6;stroke-miterlimit:10;}
</style>
<polyline class="st12" points="50.08,19.44 50.08,41.77 58.74,33.11 "/>
<rect x="41.42" y="8.59" class="st10" width="17.32" height="6.41"/>
<rect x="39.03" y="4.18" class="st10" width="22.09" height="6.41"/>
<circle class="st12" cx="50.08" cy="41.84" r="28.8"/>
<line class="st12" x1="72.32" y1="41.84" x2="64.76" y2="41.84"/>
<g>
	<line class="st12" x1="65.81" y1="57.57" x2="61.88" y2="53.64"/>
</g>
<g>
	<line class="st12" x1="34.35" y1="57.57" x2="38.28" y2="53.64"/>
</g>
<g>
	<line class="st12" x1="34.35" y1="26.11" x2="38.28" y2="30.04"/>
</g>
<circle class="st12" cx="50.08" cy="41.84" r="28.8"/>
<g>
	<line class="st12" x1="65.81" y1="26.11" x2="61.88" y2="30.04"/>
</g>
<line class="st12" x1="50.08" y1="64.09" x2="50.08" y2="56.53"/>
<line class="st12" x1="27.83" y1="41.84" x2="35.39" y2="41.84"/>
<g>
	<polygon class="st10" points="35.15,83.11 37.89,85.99 41.03,82.83 41.03,95.34 45.84,95.34 45.84,76.67 41.67,76.67 	"/>
	<path class="st10" d="M56.26,76.39c-5.46,0-8.01,4.7-8.01,9.63c0,4.93,2.55,9.66,8.01,9.66s8.01-4.73,8.01-9.66
		C64.27,81.09,61.72,76.39,56.26,76.39z M56.26,91.42c-2.24,0-3.14-2.1-3.14-5.4c0-3.3,0.9-5.38,3.14-5.38
		c2.24,0,3.14,2.07,3.14,5.38C59.39,89.32,58.5,91.42,56.26,91.42z"/>
</g>
</svg>
