<?xml version="1.0" encoding="utf-8"?>
<!-- Generator: Adobe Illustrator 23.0.2, SVG Export Plug-In . SVG Version: 6.00 Build 0)  -->
<svg version="1.1" id="Layer_1" xmlns="http://www.w3.org/2000/svg" xmlns:xlink="http://www.w3.org/1999/xlink" x="0px" y="0px"
	 viewBox="0 0 30 30" style="enable-background:new 0 0 30 30;" xml:space="preserve">
<style type="text/css">
	.st0{fill:#273E82;}
</style>
<g>
	<path class="st0" d="M11.5,13.1c0.2,0.2,0.4,0.3,0.6,0.3h5.7c0.2,0,0.5-0.1,0.6-0.3l1.4-1.4c0.2-0.2,0.3-0.4,0.3-0.6V4.1
		c0-0.5-0.4-0.9-0.9-0.9h-2.4c-0.5,0-0.9,0.4-0.9,0.9v5h-1.9v-5c0-0.5-0.4-0.9-0.9-0.9h-2.4c-0.5,0-0.9,0.4-0.9,0.9V11
		c0,0.2,0.1,0.5,0.3,0.6L11.5,13.1z M17.5,9.7v-5h1.2v6l-1,1h-5.2l-1-1v-6h1.2v5c0,0.2,0.1,0.4,0.2,0.5l0.2,0.2
		c0.1,0.1,0.3,0.2,0.5,0.2h3c0.2,0,0.4-0.1,0.5-0.2l0.2-0.2C17.4,10.1,17.5,9.9,17.5,9.7z"/>
	<path class="st0" d="M27.2,0H2.8C2.4,0,2.1,0.3,2.1,0.8v22.4c0,0.3,0.2,0.6,0.4,0.7l12.2,6C14.8,30,14.9,30,15,30
		c0.1,0,0.2,0,0.3-0.1l12.2-6c0.3-0.1,0.4-0.4,0.4-0.7V0.8C27.9,0.3,27.6,0,27.2,0z M26.4,1.5v21.2L15,28.4L3.6,22.7V1.5H26.4z"/>
	<path class="st0" d="M8.9,18.3C8.9,18.3,8.9,18.3,8.9,18.3l0.5,0.4c-1,0.1-1.9,0.6-2.5,1.4c-0.2,0.3-0.2,0.7,0,1
		c0.7,0.9,1.9,1.5,3,1.5c0.9,0,1.8-0.3,2.5-0.9l1.6,1.6l-1.5,1.5c-0.3,0.3-0.3,0.8,0,1.1c0.3,0.3,0.8,0.3,1.1,0l1.5-1.5l1.5,1.5
		c0.1,0.1,0.3,0.2,0.5,0.2c0.2,0,0.4-0.1,0.5-0.2c0.1-0.1,0.2-0.3,0.2-0.5s-0.1-0.4-0.2-0.5l-1.5-1.5l1.6-1.6
		c0.7,0.6,1.6,0.9,2.5,0.9c1.2,0,2.3-0.5,3-1.5c0.2-0.3,0.2-0.7,0-1c-0.6-0.8-1.5-1.3-2.5-1.4l0.4-0.4c0,0,0,0,0,0
		c1,0,2-0.4,2.8-1.1c0.8-0.8,1.2-2,1.1-3.2c0-0.4-0.3-0.6-0.7-0.7c-1.2-0.1-2.3,0.3-3.2,1.1c-0.7,0.7-1.2,1.7-1.1,2.8l-0.4,0.4
		c-0.1-1-0.6-1.9-1.4-2.5c-0.3-0.2-0.7-0.2-1,0c-0.9,0.7-1.5,1.9-1.5,3c0,0.9,0.3,1.8,0.9,2.5L15,22.2l-1.6-1.6
		c0.6-0.7,0.9-1.6,0.9-2.5c0-1.2-0.5-2.3-1.5-3c-0.3-0.2-0.7-0.2-1,0c-0.8,0.6-1.3,1.5-1.4,2.5L10,17.2c0-1.1-0.4-2-1.1-2.8
		c-0.8-0.8-2-1.2-3.2-1.1C5.3,13.3,5,13.6,5,14c-0.1,1.2,0.3,2.3,1.1,3.2C6.9,17.9,7.8,18.3,8.9,18.3z M6.5,14.9
		C7,15,7.4,15.2,7.8,15.5c0.3,0.3,0.6,0.8,0.7,1.2c-0.5-0.1-0.9-0.3-1.2-0.7C6.9,15.8,6.6,15.3,6.5,14.9z M11.9,18.2
		c0-0.5,0.1-0.9,0.4-1.3c0.3,0.4,0.4,0.9,0.4,1.3s-0.1,0.9-0.4,1.3C12.1,19.1,11.9,18.6,11.9,18.2z M11.2,20.6
		c-0.8,0.5-1.9,0.5-2.7,0C9.3,20.1,10.4,20.1,11.2,20.6z M18.1,18.2c0,0.5-0.1,0.9-0.4,1.3c-0.3-0.4-0.4-0.9-0.4-1.3
		c0-0.5,0.1-0.9,0.4-1.3C17.9,17.2,18.1,17.7,18.1,18.2z M18.8,20.6c0.8-0.5,1.9-0.5,2.7,0C20.7,21.2,19.6,21.2,18.8,20.6z
		 M21.6,16.7c0.1-0.5,0.3-0.9,0.7-1.2c0.3-0.3,0.8-0.6,1.2-0.7c-0.1,0.5-0.3,0.9-0.7,1.2C22.5,16.4,22,16.7,21.6,16.7z"/>
</g>
</svg>
