<?xml version="1.0" encoding="utf-8"?>
<!-- Generator: Adobe Illustrator 23.0.1, SVG Export Plug-In . SVG Version: 6.00 Build 0)  -->
<svg version="1.1" id="Layer_1" xmlns="http://www.w3.org/2000/svg" xmlns:xlink="http://www.w3.org/1999/xlink" x="0px" y="0px"
	 viewBox="0 0 100 199.82" style="enable-background:new 0 0 100 199.82;" xml:space="preserve">
<style type="text/css">
	.st0{fill:#FFC500;}
	.st1{fill:none;stroke:#FFFFFF;stroke-width:4;stroke-linecap:round;stroke-linejoin:round;stroke-miterlimit:10;}
	.st2{fill:#68A8DE;}
	.st3{fill:#FFFFFF;}
	.st4{opacity:0.39;fill:#FFFFFF;}
	.st5{fill:#04755F;}
	.st6{fill:#03846D;}
	.st7{fill:#6B1B4B;}
	.st8{fill:#802656;}
	.st9{fill:#09846D;}
	.st10{fill:#283D82;}
	.st11{opacity:0.44;}
	.st12{fill:none;stroke:#283D82;stroke-width:5;stroke-miterlimit:10;}
	.st13{fill:#283D82;stroke:#283D82;stroke-width:5;stroke-miterlimit:10;}
	.st14{fill:none;stroke:#FFFFFF;stroke-width:5;stroke-miterlimit:10;}
	.st15{fill:#231F20;}
	.st16{fill:#273E82;stroke:#283D82;stroke-width:5;stroke-miterlimit:10;}
	.st17{fill:#283D82;stroke:#283D82;stroke-width:0.282;stroke-miterlimit:10;}
	.st18{fill:none;stroke:#283D82;stroke-width:5;stroke-linecap:round;stroke-linejoin:round;stroke-miterlimit:10;}
	.st19{fill:#273E82;}
	.st20{fill:#314A5E;}
	.st21{fill:#B2B3B5;}
	.st22{fill:#DB683B;}
	.st23{fill:#55C0EA;}
	.st24{fill:#EDEDEF;}
	.st25{fill:#006EBD;}
	.st26{fill:#56718C;}
	.st27{opacity:0.5;fill:#415569;}
	.st28{fill:#021D48;}
	.st29{fill:#FFFFFF;stroke:#006EBD;stroke-width:4;stroke-miterlimit:10;}
	.st30{fill:none;stroke:#006EBD;stroke-width:7.0257;stroke-miterlimit:10;}
	.st31{fill:none;stroke:#006EBD;stroke-width:6;stroke-miterlimit:10;}
	.st32{fill:none;stroke:#006EBD;stroke-width:9;stroke-linecap:round;stroke-linejoin:round;stroke-miterlimit:10;}
	.st33{fill:#FFFFFF;stroke:#006EBD;stroke-width:6;stroke-miterlimit:10;}
</style>
<g>
	<polyline class="st12" points="25.71,70.72 25.71,40.72 74.29,40.72 74.29,70.72 	"/>
	<polyline class="st12" points="74.29,48.99 85.62,48.99 85.62,70.72 14.38,70.72 14.38,48.99 25.71,48.99 	"/>
	<circle class="st12" cx="50" cy="30.34" r="3.55"/>
	<g>
		<polygon class="st10" points="67.66,13.9 56.18,13.9 56.18,3.67 67.66,3.67 64.45,8.78 		"/>
		<rect x="48.52" y="1.73" class="st10" width="11.48" height="10.23"/>
	</g>
	<line class="st12" x1="50" y1="1.73" x2="50" y2="18.71"/>
	<g>
		<polyline class="st12" points="62.34,70.72 62.34,51.53 37.66,51.53 37.66,70.72 		"/>
	</g>
	<polygon class="st12" points="69,40.72 31,40.72 31,26.18 50.11,18.71 69,26.18 	"/>
	<line class="st12" x1="50" y1="51.53" x2="50" y2="70.72"/>
</g>
<g>
	<g>
		<polygon class="st10" points="66.06,139.46 55.37,139.46 55.37,129.93 66.06,129.93 63.07,134.7 		"/>
		<rect x="48.24" y="128.13" class="st10" width="10.7" height="9.53"/>
	</g>
	<polygon class="st12" points="82.14,197.11 17.86,197.11 17.86,165.11 50,142 82.14,165.11 	"/>
	<line class="st12" x1="11.38" y1="165.11" x2="88.62" y2="165.11"/>
	<line class="st12" x1="11.38" y1="197.11" x2="88.62" y2="197.11"/>
	<line class="st12" x1="17.86" y1="189.39" x2="82.14" y2="189.39"/>
	<path class="st12" d="M32.52,173.06L32.52,173.06c2.73,0,4.94,2.21,4.94,4.94v11.39h-9.87V178
		C27.59,175.27,29.8,173.06,32.52,173.06z"/>
	<path class="st12" d="M50.1,173.06L50.1,173.06c2.73,0,4.94,2.21,4.94,4.94v11.39h-9.87V178C45.17,175.27,47.37,173.06,50.1,173.06
		z"/>
	<path class="st12" d="M67.68,173.06L67.68,173.06c2.73,0,4.94,2.21,4.94,4.94v11.39h-9.87V178
		C62.74,175.27,64.95,173.06,67.68,173.06z"/>
	<circle class="st12" cx="50.1" cy="154.73" r="3.55"/>
	<line class="st12" x1="50" y1="128.13" x2="50" y2="142"/>
</g>
<g>
	<path class="st10" d="M41.84,95.68c4.34,0,7.45-2.72,7.45-6.55c0-3.98-3.11-6.13-6.47-6.13c-1.88,0-3.67,0.9-4.59,2.13V84.9
		c0-2.6,2.1-4.26,4.4-4.26c1.51,0,2.55,0.39,3.58,1.23l2.07-3.7c-1.4-1.09-3.47-1.79-5.66-1.79c-5.66,0-9.27,3.7-9.27,9.66
		C33.35,91.4,35.93,95.68,41.84,95.68z M41.36,87.08c1.46,0,3.05,0.64,3.05,2.21c0,1.04-1.09,2.13-2.88,2.13
		c-2.27,0-3.16-1.57-3.3-3.08C39.04,87.48,40.19,87.08,41.36,87.08z"/>
	<path class="st10" d="M58.64,76.39c-5.46,0-8.01,4.7-8.01,9.63c0,4.93,2.55,9.66,8.01,9.66s8.01-4.73,8.01-9.66
		C66.65,81.09,64.1,76.39,58.64,76.39z M58.64,91.42c-2.24,0-3.14-2.1-3.14-5.4c0-3.3,0.9-5.38,3.14-5.38
		c2.24,0,3.14,2.07,3.14,5.38C61.77,89.32,60.88,91.42,58.64,91.42z"/>
	<polygon class="st10" points="48.67,95.68 48.67,98.35 46.23,98.35 46.23,100.89 48.67,100.89 48.67,103.67 51.33,103.67 
		51.33,100.89 53.77,100.89 53.77,98.35 51.33,98.35 51.33,95.68 	"/>
	<path class="st10" d="M42.82,112c-1.88,0-3.67,0.9-4.59,2.13v-0.22c0-2.6,2.1-4.26,4.4-4.26c1.51,0,2.55,0.39,3.58,1.23l2.07-3.7
		c-1.4-1.09-3.47-1.79-5.66-1.79c-5.66,0-9.27,3.7-9.27,9.66c0,5.35,2.58,9.63,8.48,9.63c4.34,0,7.45-2.72,7.45-6.55
		C49.29,114.15,46.18,112,42.82,112z M41.53,120.42c-2.27,0-3.16-1.57-3.3-3.08c0.81-0.87,1.96-1.26,3.14-1.26
		c1.46,0,3.05,0.64,3.05,2.21C44.41,119.33,43.32,120.42,41.53,120.42z"/>
	<path class="st10" d="M58.64,105.39c-5.46,0-8.01,4.7-8.01,9.63c0,4.93,2.55,9.66,8.01,9.66s8.01-4.73,8.01-9.66
		C66.65,110.09,64.1,105.39,58.64,105.39z M58.64,120.42c-2.24,0-3.14-2.1-3.14-5.4c0-3.3,0.9-5.38,3.14-5.38
		c2.24,0,3.14,2.07,3.14,5.38C61.77,118.32,60.88,120.42,58.64,120.42z"/>
</g>
</svg>
