<?xml version="1.0" encoding="utf-8"?>
<!-- Generator: Adobe Illustrator 23.0.1, SVG Export Plug-In . SVG Version: 6.00 Build 0)  -->
<svg version="1.1" id="Layer_1" xmlns="http://www.w3.org/2000/svg" xmlns:xlink="http://www.w3.org/1999/xlink" x="0px" y="0px"
	 viewBox="0 0 100 100" style="enable-background:new 0 0 100 100;" xml:space="preserve">
<style type="text/css">
	.st0{fill:#FFC500;}
	.st1{fill:none;stroke:#FFFFFF;stroke-width:4;stroke-linecap:round;stroke-linejoin:round;stroke-miterlimit:10;}
	.st2{fill:#68A8DE;}
	.st3{fill:#FFFFFF;}
	.st4{opacity:0.39;fill:#FFFFFF;}
	.st5{fill:#04755F;}
	.st6{fill:#03846D;}
	.st7{fill:#6B1B4B;}
	.st8{fill:#802656;}
	.st9{fill:#09846D;}
	.st10{fill:#283D82;}
	.st11{opacity:0.44;}
	.st12{fill:none;stroke:#283D82;stroke-width:5;stroke-miterlimit:10;}
	.st13{fill:#283D82;stroke:#283D82;stroke-width:5;stroke-miterlimit:10;}
	.st14{fill:none;stroke:#FFFFFF;stroke-width:5;stroke-miterlimit:10;}
	.st15{fill:#231F20;}
	.st16{fill:#273E82;stroke:#283D82;stroke-width:5;stroke-miterlimit:10;}
	.st17{fill:#283D82;stroke:#283D82;stroke-width:0.282;stroke-miterlimit:10;}
	.st18{fill:none;stroke:#283D82;stroke-width:5;stroke-linecap:round;stroke-linejoin:round;stroke-miterlimit:10;}
	.st19{fill:#273E82;}
	.st20{fill:#314A5E;}
	.st21{fill:#B2B3B5;}
	.st22{fill:#DB683B;}
	.st23{fill:#55C0EA;}
	.st24{fill:#EDEDEF;}
	.st25{fill:#006EBD;}
	.st26{fill:#56718C;}
	.st27{opacity:0.5;fill:#415569;}
	.st28{fill:#021D48;}
	.st29{fill:#FFFFFF;stroke:#006EBD;stroke-width:4;stroke-miterlimit:10;}
	.st30{fill:none;stroke:#006EBD;stroke-width:7.0257;stroke-miterlimit:10;}
	.st31{fill:none;stroke:#006EBD;stroke-width:6;stroke-miterlimit:10;}
	.st32{fill:none;stroke:#006EBD;stroke-width:9;stroke-linecap:round;stroke-linejoin:round;stroke-miterlimit:10;}
	.st33{fill:#FFFFFF;stroke:#006EBD;stroke-width:6;stroke-miterlimit:10;}
</style>
<g>
	<path class="st10" d="M21.76,22.04L21.76,22.04L21.76,22.04 M89.24,23.88c0.01,0.01,0.02,0.01,0.03,0.02
		c0.09,0.55-0.11,2.25-1.86,5.23c-0.09,0.16-0.18,0.33-0.26,0.5c-2.05,4.58-4.61,10.27-2.27,15.19c0.58,1.21,0.52,1.67-1.34,3.8
		c-0.69,0.78-1.47,1.67-2.08,2.74c-3.16,5.56-1.77,11.63-0.85,15.66c0.16,0.72,0.37,1.61,0.47,2.27c-0.61-0.43-1.58-1.54-2.15-2.18
		c-0.82-0.94-1.76-2.01-2.84-2.94c-0.92-0.8-2.09-1.23-3.28-1.23c-0.39,0-0.79,0.05-1.17,0.14c-1.57,0.38-2.87,1.5-3.47,3
		c-1.12,2.8-2.09,3.61-4.33,3.61c-0.21,0-0.43-0.01-0.7-0.03c-0.19-0.01-0.36-0.02-0.49-0.02c-2.23,0-4.2,1.48-4.81,3.63
		c-0.25,0.86-0.32,1.81-0.34,2.79c-0.68-0.44-1.46-0.99-2.15-1.47c-3.58-2.52-8.04-5.65-13.01-5.89
		c-13.14-0.63-21.58-5.1-25.82-13.66c-3.98-8.05-0.59-21.93,3.73-30.33c3.26,2.81,9.73,6.16,22.03,6.16c4.07,0,8.2-0.42,11.61-1.18
		c2.11-0.47,3.88-0.71,5.28-0.71c1.27,0,2.24,0.2,2.66,0.56c0.34,0.28,0.53,0.81,0.47,2.6c-0.07,2.07,1.14,3.97,3.05,4.77
		c0.63,0.27,1.29,0.4,1.95,0.4c1.13,0,2.25-0.38,3.15-1.11c0.67,1.09,1.75,1.89,3.02,2.22c0.41,0.1,0.83,0.16,1.24,0.16
		c1.24,0,2.46-0.46,3.4-1.33c1.5-1.39,3.28-3.81,5.12-6.4C84.99,28.37,87.91,24.29,89.24,23.88 M72.77,33.82L72.77,33.82
		L72.77,33.82 M19.77,18.12c0,0-0.01,0-0.01,0c-0.9,0.01-1.73,0.48-2.21,1.23C12.04,27.99,6.47,46,12.03,57.24
		c5.04,10.19,15.15,15.73,30.06,16.44c3.52,0.17,7.33,2.84,10.38,4.99c2.53,1.78,4.35,3.06,6.2,3.21c0.09,0.01,0.19,0.01,0.28,0.01
		c0.83,0,1.62-0.3,2.22-0.85c1.25-1.14,1.28-2.76,1.31-4.33c0.01-0.58,0.03-1.59,0.17-2.08c0.04,0,0.1,0,0.16,0.01
		c0.36,0.03,0.7,0.04,1.03,0.04c6.01,0,8-4.31,8.98-6.75c0.82,0.71,1.6,1.6,2.36,2.47c1.69,1.92,3.44,3.91,5.94,4.04
		c0.07,0,0.15,0.01,0.22,0.01c1.32,0,2.57-0.53,3.71-1.59c0.12-0.11,0.22-0.23,0.32-0.36c1.25-1.67,0.75-3.85,0.12-6.6
		c-0.79-3.46-1.88-8.2,0.32-12.07c0.36-0.63,0.91-1.25,1.49-1.92c1.68-1.91,4.22-4.8,2.1-9.25c-1.35-2.84,0.6-7.17,2.31-11
		c5.53-9.37,0.41-11.87,0.41-11.87c-0.83-0.62-1.77-0.94-2.77-0.94c-0.25,0-0.49,0.02-0.75,0.06c-3.37,0.52-6.19,4.46-9.45,9.02
		c-1.25,1.75-3.2,4.48-4.45,5.63c-0.15-0.45-0.33-1.13-0.49-2.16c-0.14-0.88-0.71-1.62-1.51-2c-0.36-0.17-0.74-0.25-1.13-0.25
		c-0.48,0-0.95,0.13-1.37,0.38c-0.77,0.46-1.43,1.18-2.19,2.01c-0.19,0.21-0.44,0.48-0.71,0.76c0.07-1.97,0.01-4.7-2.27-6.61
		c-1.38-1.15-3.29-1.72-5.86-1.72c-1.79,0-3.9,0.28-6.37,0.83c-3.02,0.67-6.72,1.06-10.53,1.06c-8.28,0-17.04-1.84-20.27-6.58
		C21.5,18.54,20.67,18.12,19.77,18.12L19.77,18.12z"/>
</g>
</svg>
