<?xml version="1.0" encoding="utf-8"?>
<!-- Generator: Adobe Illustrator 23.0.2, SVG Export Plug-In . SVG Version: 6.00 Build 0)  -->
<svg version="1.1" id="Layer_1" xmlns="http://www.w3.org/2000/svg" xmlns:xlink="http://www.w3.org/1999/xlink" x="0px" y="0px"
	 viewBox="0 0 30 30" style="enable-background:new 0 0 30 30;" xml:space="preserve">
<style type="text/css">
	.st0{fill:#283D82;}
</style>
<g>
	<path class="st0" d="M27.4,12.7v-1.6h-1.8l-9.8-7v-1h0.9v0.6h3.4l-1-1.5l1-1.5h-2.3V0h-3.7v4.1l-9.8,7H2.6v1.6h1.3v8.7H2.6V23h24.9
		v-1.6h-1.3v-8.7H27.4z M15,5.5l7.8,5.6H7.2L15,5.5z M5.5,21.4v-0.9H7h4.8h0.9h4.8h0.9h4.8h1.5v0.9H5.5z M10.2,18.9H8.6v-2.9
		c0-0.4,0.4-0.8,0.8-0.8c0.4,0,0.8,0.4,0.8,0.8V18.9z M15.8,18.9h-1.6v-2.9c0-0.4,0.4-0.8,0.8-0.8c0.4,0,0.8,0.4,0.8,0.8V18.9z
		 M21.5,18.9h-1.6v-2.9c0-0.2,0.1-0.4,0.2-0.6c0.1-0.1,0.3-0.2,0.6-0.2c0.4,0,0.8,0.4,0.8,0.8V18.9z M24.5,18.9h-1.5v-2.9
		c0-1.3-1.1-2.4-2.4-2.4c-0.6,0-1.2,0.2-1.7,0.7c-0.5,0.5-0.7,1.1-0.7,1.7v2.9h-0.9v-2.9c0-1.3-1.1-2.4-2.4-2.4
		c-1.3,0-2.4,1.1-2.4,2.4v2.9h-0.9v-2.9c0-1.3-1.1-2.4-2.4-2.4c-1.3,0-2.4,1.1-2.4,2.4v2.9H5.5v-6.2h19.1V18.9z"/>
	<path class="st0" d="M15,6.6c-1.1,0-1.9,0.9-1.9,1.9s0.9,1.9,1.9,1.9c1.1,0,1.9-0.9,1.9-1.9S16.1,6.6,15,6.6z M15,8.9
		c-0.2,0-0.3-0.2-0.3-0.3c0-0.2,0.2-0.3,0.3-0.3s0.3,0.2,0.3,0.3C15.4,8.8,15.2,8.9,15,8.9z"/>
	<path class="st0" d="M13.2,26.8c0.7-0.1,1.3-0.7,1.3-1.4c0-1-0.9-1.6-2.4-1.6c-1.1,0-1.9,0.4-2.4,1l0.7,1c0.4-0.4,0.9-0.6,1.5-0.6
		c0.6,0,1,0.2,1,0.6c0,0.3-0.4,0.5-1,0.5c-0.2,0-0.7,0-0.8,0v1.4c0.1,0,0.6,0,0.8,0c0.8,0,1.1,0.2,1.1,0.5c0,0.3-0.3,0.6-1,0.6
		c-0.5,0-1.2-0.2-1.6-0.6l-0.8,1.1c0.5,0.5,1.3,0.9,2.5,0.9c1.5,0,2.5-0.7,2.5-1.8C14.6,27.4,13.8,26.9,13.2,26.8z"/>
	<path class="st0" d="M17.7,23.8c-1.8,0-2.6,1.5-2.6,3.1c0,1.6,0.8,3.1,2.6,3.1s2.6-1.5,2.6-3.1C20.3,25.3,19.5,23.8,17.7,23.8z
		 M17.7,28.6c-0.7,0-1-0.7-1-1.7c0-1.1,0.3-1.7,1-1.7s1,0.7,1,1.7C18.7,28,18.4,28.6,17.7,28.6z"/>
</g>
</svg>
