<?xml version="1.0" encoding="utf-8"?>
<!-- Generator: Adobe Illustrator 23.0.1, SVG Export Plug-In . SVG Version: 6.00 Build 0)  -->
<svg version="1.1" id="Layer_1" xmlns="http://www.w3.org/2000/svg" xmlns:xlink="http://www.w3.org/1999/xlink" x="0px" y="0px"
	 viewBox="0 0 100 100" style="enable-background:new 0 0 100 100;" xml:space="preserve">
<style type="text/css">
	.st0{fill:#FFC500;}
	.st1{fill:none;stroke:#FFFFFF;stroke-width:4;stroke-linecap:round;stroke-linejoin:round;stroke-miterlimit:10;}
	.st2{fill:#68A8DE;}
	.st3{fill:#FFFFFF;}
	.st4{opacity:0.39;fill:#FFFFFF;}
	.st5{fill:#04755F;}
	.st6{fill:#03846D;}
	.st7{fill:#6B1B4B;}
	.st8{fill:#802656;}
	.st9{fill:#09846D;}
	.st10{fill:#283D82;}
	.st11{opacity:0.44;}
	.st12{fill:none;stroke:#283D82;stroke-width:5;stroke-miterlimit:10;}
	.st13{fill:#283D82;stroke:#283D82;stroke-width:5;stroke-miterlimit:10;}
	.st14{fill:none;stroke:#FFFFFF;stroke-width:5;stroke-miterlimit:10;}
	.st15{fill:#231F20;}
	.st16{fill:#273E82;stroke:#283D82;stroke-width:5;stroke-miterlimit:10;}
	.st17{fill:#283D82;stroke:#283D82;stroke-width:0.282;stroke-miterlimit:10;}
	.st18{fill:none;stroke:#283D82;stroke-width:5;stroke-linecap:round;stroke-linejoin:round;stroke-miterlimit:10;}
	.st19{fill:#273E82;}
	.st20{fill:#314A5E;}
	.st21{fill:#B2B3B5;}
	.st22{fill:#DB683B;}
	.st23{fill:#55C0EA;}
	.st24{fill:#EDEDEF;}
	.st25{fill:#006EBD;}
	.st26{fill:#56718C;}
	.st27{opacity:0.5;fill:#415569;}
	.st28{fill:#021D48;}
	.st29{fill:#FFFFFF;stroke:#006EBD;stroke-width:4;stroke-miterlimit:10;}
	.st30{fill:none;stroke:#006EBD;stroke-width:7.0257;stroke-miterlimit:10;}
	.st31{fill:none;stroke:#006EBD;stroke-width:6;stroke-miterlimit:10;}
	.st32{fill:none;stroke:#006EBD;stroke-width:9;stroke-linecap:round;stroke-linejoin:round;stroke-miterlimit:10;}
	.st33{fill:#FFFFFF;stroke:#006EBD;stroke-width:6;stroke-miterlimit:10;}
</style>
<g>
	<path class="st19" d="M41.05,45.06c0.4,0.39,1.08,0.67,1.64,0.67h14.63c0.56,0,1.25-0.29,1.65-0.68l3.58-3.58
		c0.39-0.4,0.67-1.08,0.67-1.64V22.16c0-1.29-1.04-2.33-2.33-2.33h-6.12c-1.29,0-2.33,1.05-2.33,2.33v12.82h-4.86V22.16
		c0-1.29-1.05-2.33-2.33-2.33h-6.12c-1.29,0-2.33,1.05-2.33,2.33v17.67c0,0.55,0.29,1.24,0.68,1.65L41.05,45.06z M56.35,36.45V23.74
		h2.95v15.43l-2.64,2.64H43.34l-2.64-2.64V23.74h2.95v12.71c0,0.52,0.2,1.01,0.57,1.38l0.48,0.48c0.36,0.37,0.87,0.57,1.38,0.57
		h7.81c0.52,0,1.01-0.2,1.38-0.57l0.48-0.48C56.14,37.47,56.35,36.97,56.35,36.45z"/>
	<path class="st19" d="M81.19,11.58H18.81c-1.08,0-1.96,0.88-1.96,1.96V71c0,0.75,0.42,1.42,1.09,1.76l31.19,15.46
		c0.27,0.13,0.57,0.21,0.87,0.21c0.31,0,0.6-0.07,0.87-0.2l31.19-15.46c0.67-0.33,1.09-1.01,1.09-1.76V13.54
		C83.15,12.46,82.27,11.58,81.19,11.58z M79.23,15.5v54.28L50,84.28L20.77,69.78V15.5H79.23z"/>
	<path class="st19" d="M34.35,58.5c0.03,0,0.05,0,0.08,0l1.09,1.09c-2.54,0.33-4.87,1.61-6.5,3.63c-0.58,0.71-0.58,1.75,0,2.46
		c1.92,2.37,4.76,3.72,7.8,3.72c2.29,0,4.5-0.79,6.29-2.23l4.13,4.13l-3.92,3.92c-0.76,0.76-0.76,2.01,0,2.77
		c0.74,0.74,2.03,0.74,2.77,0L50,74.07L53.92,78c0.37,0.37,0.86,0.57,1.39,0.57c0.52,0,1.02-0.2,1.38-0.57
		c0.37-0.37,0.57-0.86,0.57-1.38s-0.2-1.01-0.57-1.38l-3.92-3.92l4.13-4.13c1.78,1.44,4,2.23,6.28,2.23c3.04,0,5.88-1.36,7.8-3.72
		c0.58-0.71,0.58-1.75,0-2.46c-1.63-2.01-3.96-3.3-6.5-3.63l1.09-1.09c0.03,0,0.05,0,0.08,0c2.68,0,5.2-1.04,7.09-2.94
		c2.15-2.15,3.2-5.11,2.88-8.14c-0.1-0.91-0.83-1.65-1.74-1.74c-3.03-0.32-6,0.73-8.14,2.88c-1.91,1.91-2.95,4.45-2.92,7.16
		l-1.1,1.1c-0.33-2.54-1.61-4.87-3.63-6.5c-0.71-0.58-1.75-0.58-2.46,0c-2.36,1.91-3.72,4.76-3.72,7.8c0,2.29,0.79,4.5,2.23,6.29
		L50,68.53l-4.13-4.13c1.45-1.79,2.23-4,2.23-6.29c0-3.04-1.35-5.88-3.72-7.8c-0.71-0.58-1.75-0.58-2.47,0
		c-2.01,1.63-3.3,3.96-3.63,6.5l-1.1-1.1c0.02-2.71-1.01-5.25-2.92-7.16c-2.15-2.15-5.12-3.2-8.14-2.88
		c-0.91,0.09-1.65,0.83-1.74,1.74c-0.32,3.03,0.73,6,2.88,8.14C29.15,57.46,31.67,58.5,34.35,58.5z M28.35,49.65
		c1.19,0.23,2.27,0.8,3.14,1.68c0.86,0.86,1.44,1.96,1.68,3.14c-1.19-0.23-2.27-0.8-3.14-1.68C29.16,51.93,28.58,50.83,28.35,49.65z
		 M42.11,58.11c0-1.22,0.37-2.41,1.04-3.41c0.67,1,1.04,2.19,1.04,3.41c0,1.22-0.36,2.41-1.04,3.41
		C42.48,60.52,42.11,59.33,42.11,58.11z M40.22,64.45c-2,1.35-4.81,1.34-6.81,0C35.4,63.11,38.22,63.11,40.22,64.45z M57.89,58.12
		c0,1.22-0.36,2.41-1.04,3.41c-0.67-1-1.04-2.19-1.04-3.41c0-1.22,0.36-2.41,1.04-3.41C57.52,55.71,57.89,56.9,57.89,58.12z
		 M59.78,64.45c2-1.35,4.81-1.35,6.81,0C64.59,65.79,61.78,65.8,59.78,64.45z M66.83,54.47c0.23-1.18,0.81-2.28,1.67-3.14
		c0.88-0.88,1.95-1.45,3.14-1.68c-0.23,1.18-0.81,2.28-1.68,3.14C69.1,53.67,68.02,54.24,66.83,54.47z"/>
</g>
</svg>
