<?xml version="1.0" encoding="utf-8"?>
<!-- Generator: Adobe Illustrator 23.0.1, SVG Export Plug-In . SVG Version: 6.00 Build 0)  -->
<svg version="1.1" id="Layer_1" xmlns="http://www.w3.org/2000/svg" xmlns:xlink="http://www.w3.org/1999/xlink" x="0px" y="0px"
	 viewBox="0 0 100 100" style="enable-background:new 0 0 100 100;" xml:space="preserve">
<style type="text/css">
	.st0{fill:#FFC500;}
	.st1{fill:none;stroke:#FFFFFF;stroke-width:4;stroke-linecap:round;stroke-linejoin:round;stroke-miterlimit:10;}
	.st2{fill:#68A8DE;}
	.st3{fill:#FFFFFF;}
	.st4{opacity:0.39;fill:#FFFFFF;}
	.st5{fill:#04755F;}
	.st6{fill:#03846D;}
	.st7{fill:#6B1B4B;}
	.st8{fill:#802656;}
	.st9{fill:#09846D;}
	.st10{fill:#283D82;}
	.st11{opacity:0.44;}
	.st12{fill:none;stroke:#283D82;stroke-width:5;stroke-miterlimit:10;}
	.st13{fill:#283D82;stroke:#283D82;stroke-width:5;stroke-miterlimit:10;}
	.st14{fill:none;stroke:#FFFFFF;stroke-width:5;stroke-miterlimit:10;}
	.st15{fill:#231F20;}
	.st16{fill:#273E82;stroke:#283D82;stroke-width:5;stroke-miterlimit:10;}
	.st17{fill:#283D82;stroke:#283D82;stroke-width:0.282;stroke-miterlimit:10;}
	.st18{fill:none;stroke:#283D82;stroke-width:5;stroke-linecap:round;stroke-linejoin:round;stroke-miterlimit:10;}
	.st19{fill:#273E82;}
	.st20{fill:#314A5E;}
	.st21{fill:#B2B3B5;}
	.st22{fill:#DB683B;}
	.st23{fill:#55C0EA;}
	.st24{fill:#EDEDEF;}
	.st25{fill:#006EBD;}
	.st26{fill:#56718C;}
	.st27{opacity:0.5;fill:#415569;}
	.st28{fill:#021D48;}
	.st29{fill:#FFFFFF;stroke:#006EBD;stroke-width:4;stroke-miterlimit:10;}
	.st30{fill:none;stroke:#006EBD;stroke-width:7.0257;stroke-miterlimit:10;}
	.st31{fill:none;stroke:#006EBD;stroke-width:6;stroke-miterlimit:10;}
	.st32{fill:none;stroke:#006EBD;stroke-width:9;stroke-linecap:round;stroke-linejoin:round;stroke-miterlimit:10;}
	.st33{fill:#FFFFFF;stroke:#006EBD;stroke-width:6;stroke-miterlimit:10;}
</style>
<g>
	<polyline class="st12" points="25.71,70.72 25.71,40.72 74.29,40.72 74.29,70.72 	"/>
	<polyline class="st12" points="74.29,48.99 85.62,48.99 85.62,70.72 14.38,70.72 14.38,48.99 25.71,48.99 	"/>
	<circle class="st12" cx="50" cy="30.34" r="3.55"/>
	<g>
		<polygon class="st10" points="67.66,13.9 56.18,13.9 56.18,3.67 67.66,3.67 64.45,8.78 		"/>
		<rect x="48.52" y="1.73" class="st10" width="11.48" height="10.23"/>
	</g>
	<line class="st12" x1="50" y1="1.73" x2="50" y2="18.71"/>
	<g>
		<polyline class="st12" points="62.34,70.72 62.34,51.53 37.66,51.53 37.66,70.72 		"/>
	</g>
	<polygon class="st12" points="69,40.72 31,40.72 31,26.18 50.11,18.71 69,26.18 	"/>
	<line class="st12" x1="50" y1="51.53" x2="50" y2="70.72"/>
</g>
<g>
	<polygon class="st10" points="26.65,83.11 29.39,85.99 32.53,82.83 32.53,95.34 37.34,95.34 37.34,76.67 33.17,76.67 	"/>
	<path class="st10" d="M54.76,82.58c0-3.72-3.16-6.19-7.56-6.19c-2.6,0-5.57,0.92-7.56,3.11l2.66,3.19
		c1.34-1.26,2.91-2.04,4.98-2.04c1.37,0,2.58,0.67,2.58,1.93c0,1.88-1.51,3.16-9.6,9.02v3.75H54.9v-4.2h-6.83
		C52.72,87.9,54.76,85.46,54.76,82.58z"/>
	<path class="st10" d="M64.76,76.39c-5.46,0-8.01,4.7-8.01,9.63c0,4.93,2.55,9.66,8.01,9.66s8.01-4.73,8.01-9.66
		C72.76,81.09,70.22,76.39,64.76,76.39z M64.76,91.42c-2.24,0-3.14-2.1-3.14-5.4c0-3.3,0.9-5.38,3.14-5.38
		c2.24,0,3.14,2.07,3.14,5.38C67.89,89.32,67,91.42,64.76,91.42z"/>
</g>
</svg>
