<?xml version="1.0" encoding="utf-8"?>
<!-- Generator: Adobe Illustrator 23.0.2, SVG Export Plug-In . SVG Version: 6.00 Build 0)  -->
<svg version="1.1" id="Layer_1" xmlns="http://www.w3.org/2000/svg" xmlns:xlink="http://www.w3.org/1999/xlink" x="0px" y="0px"
	 viewBox="0 0 30 60" style="enable-background:new 0 0 30 60;" xml:space="preserve">
<style type="text/css">
	.st0{fill:#283D82;}
</style>
<g>
	<path class="st0" d="M26.6,13.6h-3.4v-2.5h-1.6V6.9l-5.8-2.3V3.1h1.1v0.6h3.5l-1-1.6l1-1.5H18V0h-3.8v4.6L8.5,6.9v4.2H6.9v2.5H3.4
		v8.1h23.1V13.6z M10,7.9l5-2l5,2v3.1H10V7.9z M8.5,12.6h13h0.1v7.6h-2.1v-5.8h-9v5.8H8.4L8.5,12.6L8.5,12.6z M15.8,15.9H18v4.3
		h-2.2V15.9z M14.2,20.2H12v-4.3h2.2V20.2z M5,15.1h1.9v5.1H5V15.1z M25,20.2h-1.9v-5.1H25V20.2z"/>
	<path class="st0" d="M15,6.8c-1,0-1.8,0.8-1.8,1.8s0.8,1.8,1.8,1.8s1.8-0.8,1.8-1.8S16,6.8,15,6.8z M15,9c-0.2,0-0.3-0.1-0.3-0.3
		s0.1-0.3,0.3-0.3s0.3,0.1,0.3,0.3S15.2,9,15,9z"/>
	<path class="st0" d="M26.7,50.3v-1.5H25l-9.2-6.6v-0.9h0.9v0.5h3.2L19,40.3l0.9-1.4h-2.2v-0.5l-3.5,0v3.8L5,48.8H3.3v1.5h1.2v8.2
		H3.3V60h23.4v-1.5h-1.2v-8.2H26.7z M15,43.5l7.4,5.3H7.6L15,43.5z M6,58.5v-0.8h1.4H12h0.8h4.5h0.8h4.5H24v0.8H6z M10.4,56.1H9
		v-2.7c0-0.4,0.3-0.7,0.7-0.7c0.4,0,0.7,0.3,0.7,0.7V56.1z M15.8,56.1h-1.5v-2.7c0-0.4,0.3-0.7,0.7-0.7c0.4,0,0.7,0.3,0.7,0.7V56.1z
		 M21.1,56.1h-1.5v-2.7c0-0.2,0.1-0.4,0.2-0.5c0.1-0.1,0.3-0.2,0.5-0.2c0.4,0,0.7,0.3,0.7,0.7V56.1z M24,56.1h-1.4v-2.7
		c0-1.2-1-2.3-2.3-2.3c-0.6,0-1.2,0.2-1.6,0.7c-0.4,0.4-0.7,1-0.7,1.6v2.7h-0.8v-2.7c0-1.2-1-2.3-2.3-2.3c-1.2,0-2.3,1-2.3,2.3v2.7
		H12v-2.7c0-1.2-1-2.3-2.3-2.3c-1.2,0-2.3,1-2.3,2.3v2.7H6v-5.8h18V56.1z"/>
	<path class="st0" d="M15,44.6c-1,0-1.8,0.8-1.8,1.8s0.8,1.8,1.8,1.8c1,0,1.8-0.8,1.8-1.8S16,44.6,15,44.6z M15,46.7
		c-0.2,0-0.3-0.1-0.3-0.3c0-0.2,0.1-0.3,0.3-0.3s0.3,0.1,0.3,0.3C15.3,46.6,15.2,46.7,15,46.7z"/>
	<path class="st0" d="M12.8,23.9c0.5,0,0.8,0.1,1.1,0.4l0.6-1.1c-0.4-0.3-1.1-0.5-1.7-0.5c-1.7,0-2.8,1.1-2.8,2.9
		c0,1.6,0.8,2.9,2.6,2.9c1.3,0,2.3-0.8,2.3-2c0-1.2-0.9-1.9-2-1.9c-0.6,0-1.1,0.3-1.4,0.6v-0.1C11.4,24.4,12.1,23.9,12.8,23.9z
		 M12.4,25.9c0.4,0,0.9,0.2,0.9,0.7c0,0.3-0.3,0.6-0.9,0.6c-0.7,0-1-0.5-1-0.9C11.7,26,12,25.9,12.4,25.9z"/>
	<path class="st0" d="M17.6,22.6c-1.7,0-2.4,1.4-2.4,2.9c0,1.5,0.8,2.9,2.4,2.9c1.7,0,2.4-1.4,2.4-2.9C20,24.1,19.3,22.6,17.6,22.6z
		 M17.6,27.2c-0.7,0-1-0.6-1-1.6c0-1,0.3-1.6,1-1.6c0.7,0,1,0.6,1,1.6C18.6,26.6,18.3,27.2,17.6,27.2z"/>
	<polygon class="st0" points="15.4,30.1 16.1,30.1 16.1,29.3 15.4,29.3 15.4,28.5 14.6,28.5 14.6,29.3 13.9,29.3 13.9,30.1 
		14.6,30.1 14.6,30.9 15.4,30.9 	"/>
	<path class="st0" d="M12.5,37.3c1.3,0,2.3-0.8,2.3-2c0-1.2-0.9-1.9-2-1.9c-0.6,0-1.1,0.3-1.4,0.6V34c0-0.8,0.6-1.3,1.3-1.3
		c0.5,0,0.8,0.1,1.1,0.4l0.6-1.1c-0.4-0.3-1.1-0.5-1.7-0.5c-1.7,0-2.8,1.1-2.8,2.9C10,36,10.7,37.3,12.5,37.3z M12.4,34.7
		c0.4,0,0.9,0.2,0.9,0.7c0,0.3-0.3,0.6-0.9,0.6c-0.7,0-1-0.5-1-0.9C11.7,34.8,12,34.7,12.4,34.7z"/>
	<path class="st0" d="M17.6,37.3c1.7,0,2.4-1.4,2.4-2.9c0-1.5-0.8-2.9-2.4-2.9c-1.7,0-2.4,1.4-2.4,2.9C15.2,35.8,16,37.3,17.6,37.3z
		 M17.6,32.7c0.7,0,1,0.6,1,1.6c0,1-0.3,1.6-1,1.6c-0.7,0-1-0.6-1-1.6C16.7,33.4,16.9,32.7,17.6,32.7z"/>
</g>
</svg>
