<?xml version="1.0" encoding="utf-8"?>
<!-- Generator: Adobe Illustrator 23.0.1, SVG Export Plug-In . SVG Version: 6.00 Build 0)  -->
<svg version="1.1" id="Layer_1" xmlns="http://www.w3.org/2000/svg" xmlns:xlink="http://www.w3.org/1999/xlink" x="0px" y="0px"
	 viewBox="0 0 100 100" style="enable-background:new 0 0 100 100;" xml:space="preserve">
<style type="text/css">
	.st0{fill:#FFC500;}
	.st1{fill:none;stroke:#FFFFFF;stroke-width:4;stroke-linecap:round;stroke-linejoin:round;stroke-miterlimit:10;}
	.st2{fill:#68A8DE;}
	.st3{fill:#FFFFFF;}
	.st4{opacity:0.39;fill:#FFFFFF;}
	.st5{fill:#04755F;}
	.st6{fill:#03846D;}
	.st7{fill:#6B1B4B;}
	.st8{fill:#802656;}
	.st9{fill:#09846D;}
	.st10{fill:#283D82;}
	.st11{opacity:0.44;}
	.st12{fill:none;stroke:#283D82;stroke-width:5;stroke-miterlimit:10;}
	.st13{fill:#283D82;stroke:#283D82;stroke-width:5;stroke-miterlimit:10;}
	.st14{fill:none;stroke:#FFFFFF;stroke-width:5;stroke-miterlimit:10;}
	.st15{fill:#231F20;}
	.st16{fill:#273E82;stroke:#283D82;stroke-width:5;stroke-miterlimit:10;}
	.st17{fill:#283D82;stroke:#283D82;stroke-width:0.282;stroke-miterlimit:10;}
	.st18{fill:none;stroke:#283D82;stroke-width:5;stroke-linecap:round;stroke-linejoin:round;stroke-miterlimit:10;}
	.st19{fill:#273E82;}
	.st20{fill:#314A5E;}
	.st21{fill:#B2B3B5;}
	.st22{fill:#DB683B;}
	.st23{fill:#55C0EA;}
	.st24{fill:#EDEDEF;}
	.st25{fill:#006EBD;}
	.st26{fill:#56718C;}
	.st27{opacity:0.5;fill:#415569;}
	.st28{fill:#021D48;}
	.st29{fill:#FFFFFF;stroke:#006EBD;stroke-width:4;stroke-miterlimit:10;}
	.st30{fill:none;stroke:#006EBD;stroke-width:7.0257;stroke-miterlimit:10;}
	.st31{fill:none;stroke:#006EBD;stroke-width:6;stroke-miterlimit:10;}
	.st32{fill:none;stroke:#006EBD;stroke-width:9;stroke-linecap:round;stroke-linejoin:round;stroke-miterlimit:10;}
	.st33{fill:#FFFFFF;stroke:#006EBD;stroke-width:6;stroke-miterlimit:10;}
</style>
<path class="st10" d="M91.25,56.73L68.82,37.57c-0.71-0.61-1.71-0.74-2.55-0.35c-0.84,0.39-1.39,1.24-1.39,2.17v8.05H32.73
	c-1.32,0-2.39,1.07-2.39,2.39v5.32L14,41.43l16.34-13.97v6.33c0,1.32,1.07,2.39,2.39,2.39h20.14v-4.78H35.12v-9.13
	c0-0.93-0.54-1.78-1.39-2.17c-0.84-0.39-1.85-0.25-2.55,0.35L8.75,39.63c-0.53,0.46-0.84,1.12-0.84,1.83c0,0.7,0.32,1.37,0.85,1.82
	L31.2,62.09c0.71,0.59,1.71,0.73,2.55,0.33c0.84-0.39,1.38-1.24,1.38-2.17v-8.05h32.14c1.32,0,2.39-1.07,2.39-2.39v-5.25
	l16.37,13.98L69.65,72.54V66.2c0-1.32-1.07-2.39-2.39-2.39H47.12v4.78h17.75v9.13c0,0.93,0.55,1.78,1.39,2.17
	c0.31,0.15,0.65,0.22,1,0.22c0.57,0,1.12-0.2,1.55-0.57l22.43-19.17c0.53-0.45,0.84-1.12,0.84-1.82
	C92.09,57.85,91.78,57.19,91.25,56.73z"/>
</svg>
