<?xml version="1.0" encoding="utf-8"?>
<!-- Generator: Adobe Illustrator 23.0.2, SVG Export Plug-In . SVG Version: 6.00 Build 0)  -->
<svg version="1.1" id="Layer_1" xmlns="http://www.w3.org/2000/svg" xmlns:xlink="http://www.w3.org/1999/xlink" x="0px" y="0px"
	 viewBox="0 0 30 30" style="enable-background:new 0 0 30 30;" xml:space="preserve">
<style type="text/css">
	.st0{fill:#283D82;}
</style>
<g>
	<path class="st0" d="M23.6,14.3v-2.6h-1.7V7.3l-6.1-2.4V3.3H17v0.6h3.7l-1-1.6l1-1.6h-2.4V0h-4v4.9L8.1,7.3v4.4H6.4v2.6H2.8v8.5
		h24.3v-8.5H23.6z M9.7,8.4L15,6.3l5.2,2.1v3.3H9.7V8.4z M8.1,13.2h13.7H22v8h-2.2v-6.1h-9.5v6.1H8L8.1,13.2L8.1,13.2z M15.8,16.7
		h2.3v4.5h-2.3V16.7z M14.2,21.2h-2.3v-4.5h2.3V21.2z M4.4,15.9h2v5.3h-2V15.9z M25.6,21.2h-2v-5.3h2V21.2z"/>
	<path class="st0" d="M15,7.2c-1.1,0-1.9,0.9-1.9,1.9s0.9,1.9,1.9,1.9s1.9-0.9,1.9-1.9S16.1,7.2,15,7.2z M15,9.5
		c-0.2,0-0.3-0.2-0.3-0.3c0-0.2,0.2-0.3,0.3-0.3s0.3,0.2,0.3,0.3C15.3,9.3,15.2,9.5,15,9.5z"/>
	<polygon class="st0" points="7.5,26 8.4,26.9 9.4,25.9 9.4,29.9 11,29.9 11,23.9 9.6,23.9 	"/>
	<path class="st0" d="M16.5,25.8c0-1.2-1-2-2.4-2c-0.8,0-1.8,0.3-2.4,1l0.8,1c0.4-0.4,0.9-0.7,1.6-0.7c0.4,0,0.8,0.2,0.8,0.6
		c0,0.6-0.5,1-3.1,2.9v1.2h4.7v-1.3h-2.2C15.9,27.5,16.5,26.7,16.5,25.8z"/>
	<path class="st0" d="M19.7,23.8c-1.7,0-2.6,1.5-2.6,3.1c0,1.6,0.8,3.1,2.6,3.1c1.7,0,2.6-1.5,2.6-3.1
		C22.3,25.3,21.5,23.8,19.7,23.8z M19.7,28.6c-0.7,0-1-0.7-1-1.7c0-1.1,0.3-1.7,1-1.7s1,0.7,1,1.7C20.7,28,20.4,28.6,19.7,28.6z"/>
</g>
</svg>
