<?xml version="1.0" encoding="utf-8"?>
<!-- Generator: Adobe Illustrator 23.0.2, SVG Export Plug-In . SVG Version: 6.00 Build 0)  -->
<svg version="1.1" id="Layer_1" xmlns="http://www.w3.org/2000/svg" xmlns:xlink="http://www.w3.org/1999/xlink" x="0px" y="0px"
	 viewBox="0 0 60 30" style="enable-background:new 0 0 60 30;" xml:space="preserve">
<style type="text/css">
	.st0{fill:#283D82;}
</style>
<g>
	<path class="st0" d="M19.5,15.2h-1.6v-4.1l-5.7-2.3V7.3h1.1v0.6h3.4l-1-1.5l1-1.5h-2.3V4.3l-3.8,0v4.6L5,11.1v4.1H3.4v2.5H0v8h22.9
		v-8h-3.4V15.2z M6.5,12.1l5-2l4.9,1.9v3.1H6.5V12.1z M5,16.7h12.9H18v7.5h-2.1v-5.8H7v5.8H4.9L5,16.7L5,16.7z M12.2,20h2.2v4.3
		h-2.2V20z M10.7,24.2H8.5V20h2.2V24.2z M1.5,19.2h1.9v5H1.5V19.2z M21.4,19.2v5h-1.9v-5H21.4z"/>
	<path class="st0" d="M11.4,11c-1,0-1.8,0.8-1.8,1.8s0.8,1.8,1.8,1.8s1.8-0.8,1.8-1.8S12.4,11,11.4,11z M11.4,13.2
		c-0.2,0-0.3-0.1-0.3-0.3c0-0.2,0.1-0.3,0.3-0.3c0.2,0,0.3,0.1,0.3,0.3C11.8,13,11.6,13.2,11.4,13.2z"/>
	<path class="st0" d="M60,16.1v-1.5h-1.7L49.2,8V7.1H50v0.5h3.2l-0.9-1.4l0.9-1.4h-2.1V4.3l-3.4,0V8l-9.1,6.6h-1.7v1.5H38v8.1h-1.2
		v1.5H60v-1.5h-1.2v-8.1H60z M48.4,9.4l7.3,5.3H41.1L48.4,9.4z M39.5,24.2v-0.8h1.4h4.5h0.8h4.5h0.8h4.5h1.4v0.8H39.5z M43.9,21.9
		h-1.5v-2.7c0-0.4,0.3-0.7,0.7-0.7c0.4,0,0.7,0.3,0.7,0.7V21.9z M49.2,21.9h-1.5v-2.7c0-0.4,0.3-0.7,0.7-0.7c0.4,0,0.7,0.3,0.7,0.7
		V21.9z M54.4,21.9H53v-2.7c0-0.2,0.1-0.4,0.2-0.5c0.1-0.1,0.3-0.2,0.5-0.2c0.4,0,0.7,0.3,0.7,0.7V21.9z M57.3,21.9h-1.4v-2.7
		c0-1.2-1-2.2-2.2-2.2c-0.6,0-1.2,0.2-1.6,0.7c-0.4,0.4-0.7,1-0.6,1.6v2.7h-0.8v-2.7c0-1.2-1-2.2-2.2-2.2c-1.2,0-2.2,1-2.2,2.2v2.7
		h-0.8v-2.7c0-1.2-1-2.2-2.2-2.2c-1.2,0-2.2,1-2.2,2.2v2.7h-1.4v-5.8h17.8V21.9z"/>
	<path class="st0" d="M48.4,10.4c-1,0-1.8,0.8-1.8,1.8s0.8,1.8,1.8,1.8s1.8-0.8,1.8-1.8S49.4,10.4,48.4,10.4z M48.4,12.6
		c-0.2,0-0.3-0.1-0.3-0.3s0.1-0.3,0.3-0.3s0.3,0.1,0.3,0.3S48.6,12.6,48.4,12.6z"/>
	<path class="st0" d="M27.6,14c1.3,0,2.2-0.8,2.2-2c0-1.2-0.9-1.8-1.9-1.8c-0.6,0-1.1,0.3-1.4,0.6v-0.1c0-0.8,0.6-1.3,1.3-1.3
		c0.5,0,0.8,0.1,1.1,0.4l0.6-1.1c-0.4-0.3-1-0.5-1.7-0.5c-1.7,0-2.8,1.1-2.8,2.9C25,12.7,25.8,14,27.6,14z M27.4,11.4
		c0.4,0,0.9,0.2,0.9,0.7c0,0.3-0.3,0.6-0.9,0.6c-0.7,0-0.9-0.5-1-0.9C26.7,11.5,27.1,11.4,27.4,11.4z"/>
	<path class="st0" d="M32.6,8.2c-1.6,0-2.4,1.4-2.4,2.9S31,14,32.6,14c1.6,0,2.4-1.4,2.4-2.9S34.2,8.2,32.6,8.2z M32.6,12.7
		c-0.7,0-0.9-0.6-0.9-1.6s0.3-1.6,0.9-1.6c0.7,0,0.9,0.6,0.9,1.6C33.6,12,33.3,12.7,32.6,12.7z"/>
	<polygon class="st0" points="29.6,14 29.6,14.8 28.9,14.8 28.9,15.5 29.6,15.5 29.6,16.4 30.4,16.4 30.4,15.5 31.1,15.5 31.1,14.8 
		30.4,14.8 30.4,14 	"/>
	<path class="st0" d="M27.9,18.9c-0.6,0-1.1,0.3-1.4,0.6v-0.1c0-0.8,0.6-1.3,1.3-1.3c0.5,0,0.8,0.1,1.1,0.4l0.6-1.1
		c-0.4-0.3-1-0.5-1.7-0.5c-1.7,0-2.8,1.1-2.8,2.9c0,1.6,0.8,2.9,2.5,2.9c1.3,0,2.2-0.8,2.2-2C29.8,19.5,28.9,18.9,27.9,18.9z
		 M27.5,21.4c-0.7,0-0.9-0.5-1-0.9c0.2-0.3,0.6-0.4,0.9-0.4c0.4,0,0.9,0.2,0.9,0.7C28.3,21.1,28,21.4,27.5,21.4z"/>
	<path class="st0" d="M32.6,16.9c-1.6,0-2.4,1.4-2.4,2.9s0.8,2.9,2.4,2.9c1.6,0,2.4-1.4,2.4-2.9S34.2,16.9,32.6,16.9z M32.6,21.4
		c-0.7,0-0.9-0.6-0.9-1.6c0-1,0.3-1.6,0.9-1.6c0.7,0,0.9,0.6,0.9,1.6C33.6,20.8,33.3,21.4,32.6,21.4z"/>
</g>
</svg>
