<?xml version="1.0" encoding="utf-8"?>
<!-- Generator: Adobe Illustrator 23.0.2, SVG Export Plug-In . SVG Version: 6.00 Build 0)  -->
<svg version="1.1" id="Layer_1" xmlns="http://www.w3.org/2000/svg" xmlns:xlink="http://www.w3.org/1999/xlink" x="0px" y="0px"
	 viewBox="0 0 30 30" style="enable-background:new 0 0 30 30;" xml:space="preserve">
<style type="text/css">
	.st0{fill:#FFFFFF;}
</style>
<path class="st0" d="M24.3,2.9c0-0.7,0.1-1.4,0.1-2.1v-0.9H5.7v0.9c0,0.7,0,1.4,0.1,2.1H0v0.9C0,11.7,5.1,18.3,11.7,19
	c0.1,0.1,0.2,0.2,0.3,0.3v3.3c0,1.4-1.1,2.5-2.5,2.5h-2v3.1H5.4v1.8h19.3v-1.8h-2.2v-3.1h-2c-1.4,0-2.5-1.1-2.5-2.5v-3.3
	c0.1-0.1,0.2-0.2,0.3-0.3C24.9,18.3,30,11.7,30,3.8V2.9H24.3z M22.6,1.7c-0.2,8.4-3.3,15.5-7.6,17.4c-4.3-1.9-7.4-9-7.6-17.4H22.6z
	 M1.8,4.7h4.1c0.5,4.8,1.9,9.1,4,12.1C5.4,15.2,2.1,10.4,1.8,4.7z M20.7,26.8v1.3H9.3v-1.3H20.7z M17,25.1H13
	c0.5-0.7,0.8-1.6,0.8-2.5v-2.1c0.3,0.1,0.6,0.3,0.9,0.4L15,21l0.3-0.1c0.3-0.1,0.6-0.2,0.9-0.4v2.1C16.2,23.5,16.5,24.4,17,25.1z
	 M20.2,16.8c2-3,3.5-7.2,4-12.1h4.1C27.9,10.4,24.6,15.2,20.2,16.8z"/>
</svg>
