<?xml version="1.0" encoding="UTF-8"?>
<svg viewBox="0 0 78 72" version="1.1" xmlns="http://www.w3.org/2000/svg" xmlns:xlink="http://www.w3.org/1999/xlink">
    <!-- Generator: Sketch 52.6 (67491) - http://www.bohemiancoding.com/sketch -->
    <title>icon-uni</title>
    <desc>Created with Sketch.</desc>
    <g id="Page-1" stroke-width="1" fill="none" fill-rule="evenodd">
        <g id="icon-uni">
            <g id="Group" class="flag" transform="translate(37.000000, 0.000000)">
                <polygon id="Path" points="18.06 11.84 7.37 11.84 7.37 2.31 18.06 2.31 15.07 7.07"></polygon>
                <rect id="Rectangle" x="0.24" y="0.51" width="10.7" height="9.53"></rect>
            </g>
            <polygon id="Path" stroke-width="5" points="71.14 69.49 6.86 69.49 6.86 37.49 39 14.38 71.14 37.49"></polygon>
            <path d="M0.38,37.49 L77.62,37.49" id="Path" stroke-width="5"></path>
            <path d="M0.38,69.49 L77.62,69.49" id="Path" stroke-width="5"></path>
            <path d="M6.86,61.77 L71.14,61.77" id="Path" stroke-width="5"></path>
            <path d="M21.52,45.44 C24.25,45.44 26.46,47.65 26.46,50.38 L26.46,61.77 L16.59,61.77 L16.59,50.38 C16.59,47.65 18.8,45.44 21.52,45.44 Z" id="Path" stroke-width="5"></path>
            <path d="M39.1,45.44 C41.83,45.44 44.04,47.65 44.04,50.38 L44.04,61.77 L34.17,61.77 L34.17,50.38 C34.17,47.65 36.37,45.44 39.1,45.44 Z" id="Path" stroke-width="5"></path>
            <path d="M56.68,45.44 C59.41,45.44 61.62,47.65 61.62,50.38 L61.62,61.77 L51.7499662,61.77 L51.75,50.38 C51.74,47.65 53.95,45.44 56.68,45.44 Z" id="Path" stroke-width="5"></path>
            <circle id="Oval" stroke-width="5" cx="39.1" cy="27.11" r="3.55"></circle>
            <path d="M39,0.51 L39,14.38" id="Path" stroke-width="5"></path>
        </g>
    </g>
</svg>