<?xml version="1.0" encoding="utf-8"?>
<!-- Generator: Adobe Illustrator 23.0.1, SVG Export Plug-In . SVG Version: 6.00 Build 0)  -->
<svg version="1.1" id="Layer_1" xmlns="http://www.w3.org/2000/svg" xmlns:xlink="http://www.w3.org/1999/xlink" x="0px" y="0px"
	 viewBox="0 0 100 100" style="enable-background:new 0 0 100 100;" xml:space="preserve">
<style type="text/css">
	.st0{fill:#FFC500;}
	.st1{fill:none;stroke:#FFFFFF;stroke-width:4;stroke-linecap:round;stroke-linejoin:round;stroke-miterlimit:10;}
	.st2{fill:#68A8DE;}
	.st3{fill:#FFFFFF;}
	.st4{opacity:0.39;fill:#FFFFFF;}
	.st5{fill:#04755F;}
	.st6{fill:#03846D;}
	.st7{fill:#6B1B4B;}
	.st8{fill:#802656;}
	.st9{fill:#09846D;}
	.st10{fill:#283D82;}
	.st11{opacity:0.44;}
	.st12{fill:none;stroke:#283D82;stroke-width:5;stroke-miterlimit:10;}
	.st13{fill:#283D82;stroke:#283D82;stroke-width:5;stroke-miterlimit:10;}
	.st14{fill:none;stroke:#FFFFFF;stroke-width:5;stroke-miterlimit:10;}
	.st15{fill:#231F20;}
	.st16{fill:#273E82;stroke:#283D82;stroke-width:5;stroke-miterlimit:10;}
	.st17{fill:#283D82;stroke:#283D82;stroke-width:0.282;stroke-miterlimit:10;}
	.st18{fill:none;stroke:#283D82;stroke-width:5;stroke-linecap:round;stroke-linejoin:round;stroke-miterlimit:10;}
	.st19{fill:#273E82;}
	.st20{fill:#314A5E;}
	.st21{fill:#B2B3B5;}
	.st22{fill:#DB683B;}
	.st23{fill:#55C0EA;}
	.st24{fill:#EDEDEF;}
	.st25{fill:#006EBD;}
	.st26{fill:#56718C;}
	.st27{opacity:0.5;fill:#415569;}
	.st28{fill:#021D48;}
	.st29{fill:#FFFFFF;stroke:#006EBD;stroke-width:4;stroke-miterlimit:10;}
	.st30{fill:none;stroke:#006EBD;stroke-width:7.0257;stroke-miterlimit:10;}
	.st31{fill:none;stroke:#006EBD;stroke-width:6;stroke-miterlimit:10;}
	.st32{fill:none;stroke:#006EBD;stroke-width:9;stroke-linecap:round;stroke-linejoin:round;stroke-miterlimit:10;}
	.st33{fill:#FFFFFF;stroke:#006EBD;stroke-width:6;stroke-miterlimit:10;}
</style>
<circle class="st12" cx="50" cy="50" r="33.67"/>
<g>
	<path class="st17" d="M48.5,69.18c-5.78-0.45-10.1-2.75-13.07-5.83l3.7-5.1c2.08,2.3,5.33,4.43,9.37,5.05V52.41
		c-5.78-1.46-11.84-3.53-11.84-10.83c0-5.72,4.6-10.26,11.84-10.88v-5.16h4.49v5.22c4.54,0.5,8.36,2.3,11.27,5.1l-3.7,4.88
		c-2.13-2.13-4.82-3.42-7.57-3.98v9.7c5.83,1.51,12.17,3.7,12.17,11.22c0,5.72-3.76,10.77-12.17,11.5v5.05H48.5V69.18z M48.5,45.29
		v-8.81c-3.14,0.39-5.1,2.13-5.1,4.6C43.39,43.27,45.52,44.39,48.5,45.29z M52.98,53.59v9.76c3.87-0.56,5.44-2.86,5.44-5.05
		C58.43,55.78,56.07,54.54,52.98,53.59z"/>
</g>
<line class="st12" x1="50.38" y1="25.42" x2="50.38" y2="74.43"/>
</svg>
