<?xml version="1.0" encoding="utf-8"?>
<!-- Generator: Adobe Illustrator 23.0.2, SVG Export Plug-In . SVG Version: 6.00 Build 0)  -->
<svg version="1.1" id="Layer_1" xmlns="http://www.w3.org/2000/svg" xmlns:xlink="http://www.w3.org/1999/xlink" x="0px" y="0px"
	 viewBox="0 0 30 30" style="enable-background:new 0 0 30 30;" xml:space="preserve">
<style type="text/css">
	.st0{fill:#283D82;}
</style>
<g>
	<path class="st0" d="M23.6,14.3v-2.6h-1.7V7.3l-6.1-2.4V3.3H17v0.6h3.7l-1-1.6l1-1.6h-2.4V0h-4v4.9L8.1,7.3v4.4H6.4v2.6H2.8v8.5
		h24.3v-8.5H23.6z M9.7,8.4L15,6.3l5.2,2.1v3.3H9.7V8.4z M8.1,13.2h13.7H22v8h-2.2v-6.1h-9.5v6.1H8L8.1,13.2L8.1,13.2z M15.8,16.7
		h2.3v4.5h-2.3V16.7z M14.2,21.2h-2.3v-4.5h2.3V21.2z M4.4,15.9h2v5.3h-2V15.9z M25.6,21.2h-2v-5.3h2V21.2z"/>
	<path class="st0" d="M15,7.2c-1.1,0-1.9,0.9-1.9,1.9s0.9,1.9,1.9,1.9s1.9-0.9,1.9-1.9S16.1,7.2,15,7.2z M15,9.5
		c-0.2,0-0.3-0.2-0.3-0.3c0-0.2,0.2-0.3,0.3-0.3s0.3,0.2,0.3,0.3C15.3,9.3,15.2,9.5,15,9.5z"/>
	<path class="st0" d="M12.7,26c-0.6,0-1.2,0.3-1.5,0.7v-0.1c0-0.8,0.7-1.4,1.4-1.4c0.5,0,0.8,0.1,1.1,0.4l0.7-1.2
		c-0.4-0.3-1.1-0.6-1.8-0.6c-1.8,0-3,1.2-3,3.1c0,1.7,0.8,3.1,2.7,3.1c1.4,0,2.4-0.9,2.4-2.1C14.8,26.6,13.8,26,12.7,26z M12.3,28.6
		c-0.7,0-1-0.5-1.1-1c0.3-0.3,0.6-0.4,1-0.4c0.5,0,1,0.2,1,0.7C13.2,28.3,12.9,28.6,12.3,28.6z"/>
	<path class="st0" d="M17.8,23.8c-1.7,0-2.6,1.5-2.6,3.1S16,30,17.8,30s2.6-1.5,2.6-3.1S19.5,23.8,17.8,23.8z M17.8,28.6
		c-0.7,0-1-0.7-1-1.7s0.3-1.7,1-1.7c0.7,0,1,0.7,1,1.7C18.8,28,18.5,28.6,17.8,28.6z"/>
</g>
</svg>
