<?xml version="1.0" encoding="utf-8"?>
<!-- Generator: Adobe Illustrator 23.0.2, SVG Export Plug-In . SVG Version: 6.00 Build 0)  -->
<svg version="1.1" id="Layer_1" xmlns="http://www.w3.org/2000/svg" xmlns:xlink="http://www.w3.org/1999/xlink" x="0px" y="0px"
	 viewBox="0 0 30 30" style="enable-background:new 0 0 30 30;" xml:space="preserve">
<style type="text/css">
	.st0{fill:#283D82;}
</style>
<path class="st0" d="M28.6,9.3h-5.8c0.4-0.2,0.7-0.4,1-0.7c2-2,2-5.2,0-7.1c0,0,0,0,0,0c-2-2-5.2-2-7.1,0C16,2.2,15.4,3.7,15,5.2
	c-0.4-1.5-1-2.9-1.7-3.7c-2-2-5.2-2-7.1,0c0,0,0,0,0,0c-2,2-2,5.2,0,7.1c0.3,0.3,0.6,0.5,1,0.7H1.4c-0.6,0-1,0.5-1,1v7
	c0,0.6,0.5,1,1,1H2V29c0,0.6,0.5,1,1,1h24c0.6,0,1-0.5,1-1V18.3h0.6c0.6,0,1-0.5,1-1v-7C29.7,9.8,29.2,9.3,28.6,9.3z M27.6,16.3H16
	v-5h11.6V16.3z M18.1,2.9C18.7,2.3,19.5,2,20.3,2c0.8,0,1.5,0.3,2.1,0.9c1.2,1.2,1.2,3.1,0,4.3c-0.8,0.8-3.7,1.5-6.2,1.9
	C16.6,6.7,17.4,3.7,18.1,2.9z M7.6,2.9c1.2-1.2,3.1-1.2,4.3,0c0.8,0.8,1.5,3.7,1.9,6.2C11.3,8.7,8.4,8,7.6,7.2
	C6.4,6,6.4,4.1,7.6,2.9z M2.4,11.3H14v5H2.4V11.3z M4,18.3h10V28H4V18.3z M26,28H16v-9.7h10V28z"/>
</svg>
